<svg width="1000" height="1000" viewBox="0 0 1000 1000" fill="none" xmlns="http://www.w3.org/2000/svg">
<path d="M500 990C770.62 990 990 770.62 990 500C990 229.38 770.62 10 500 10C229.38 10 10 229.38 10 500C10 770.62 229.38 990 500 990Z" fill="#B98633"/>
<g clip-path="url(#paint0_diamond_1146_17259_clip_path)" data-figma-skip-parse="true"><g transform="matrix(1.493 1.3415 -0.250747 0.279065 500 527.5)"><rect x="0" y="0" width="354.616" height="1902.73" fill="url(#paint0_diamond_1146_17259)" opacity="0.7" shape-rendering="crispEdges"/><rect x="0" y="0" width="354.616" height="1902.73" transform="scale(1 -1)" fill="url(#paint0_diamond_1146_17259)" opacity="0.7" shape-rendering="crispEdges"/><rect x="0" y="0" width="354.616" height="1902.73" transform="scale(-1 1)" fill="url(#paint0_diamond_1146_17259)" opacity="0.7" shape-rendering="crispEdges"/><rect x="0" y="0" width="354.616" height="1902.73" transform="scale(-1)" fill="url(#paint0_diamond_1146_17259)" opacity="0.7" shape-rendering="crispEdges"/></g></g><path d="M500 990C770.62 990 990 770.62 990 500C990 229.38 770.62 10 500 10C229.38 10 10 229.38 10 500C10 770.62 229.38 990 500 990Z" data-figma-gradient-fill="{&#34;type&#34;:&#34;GRADIENT_DIAMOND&#34;,&#34;stops&#34;:[{&#34;color&#34;:{&#34;r&#34;:0.95686274766921997,&#34;g&#34;:0.87843137979507446,&#34;b&#34;:0.54117649793624878,&#34;a&#34;:1.0},&#34;position&#34;:0.0012585996882990003},{&#34;color&#34;:{&#34;r&#34;:0.55686277151107788,&#34;g&#34;:0.51121824979782104,&#34;b&#34;:0.31494697928428650,&#34;a&#34;:0.0},&#34;position&#34;:1.0}],&#34;stopsVar&#34;:[{&#34;color&#34;:{&#34;r&#34;:0.95686274766921997,&#34;g&#34;:0.87843137979507446,&#34;b&#34;:0.54117649793624878,&#34;a&#34;:1.0},&#34;position&#34;:0.0012585996882990003},{&#34;color&#34;:{&#34;r&#34;:0.55686277151107788,&#34;g&#34;:0.51121824979782104,&#34;b&#34;:0.31494697928428650,&#34;a&#34;:0.0},&#34;position&#34;:1.0}],&#34;transform&#34;:{&#34;m00&#34;:2986.0002441406250,&#34;m01&#34;:-501.49380493164062,&#34;m02&#34;:-742.25329589843750,&#34;m10&#34;:2683.0,&#34;m11&#34;:558.1291503906250,&#34;m12&#34;:-1093.0640869140625},&#34;opacity&#34;:0.69999998807907104,&#34;blendMode&#34;:&#34;NORMAL&#34;,&#34;visible&#34;:true}"/>
<path d="M500 990C770.62 990 990 770.62 990 500C990 229.38 770.62 10 500 10C229.38 10 10 229.38 10 500C10 770.62 229.38 990 500 990Z" stroke="#FEEC82" stroke-width="20"/>
<path d="M500 990C770.62 990 990 770.62 990 500C990 229.38 770.62 10 500 10C229.38 10 10 229.38 10 500C10 770.62 229.38 990 500 990Z" fill="#B98633"/>
<g clip-path="url(#paint1_diamond_1146_17259_clip_path)" data-figma-skip-parse="true"><g transform="matrix(1.493 1.3415 -0.250747 0.279065 500 527.5)"><rect x="0" y="0" width="354.616" height="1902.73" fill="url(#paint1_diamond_1146_17259)" opacity="0.7" shape-rendering="crispEdges"/><rect x="0" y="0" width="354.616" height="1902.73" transform="scale(1 -1)" fill="url(#paint1_diamond_1146_17259)" opacity="0.7" shape-rendering="crispEdges"/><rect x="0" y="0" width="354.616" height="1902.73" transform="scale(-1 1)" fill="url(#paint1_diamond_1146_17259)" opacity="0.7" shape-rendering="crispEdges"/><rect x="0" y="0" width="354.616" height="1902.73" transform="scale(-1)" fill="url(#paint1_diamond_1146_17259)" opacity="0.7" shape-rendering="crispEdges"/></g></g><path d="M500 990C770.62 990 990 770.62 990 500C990 229.38 770.62 10 500 10C229.38 10 10 229.38 10 500C10 770.62 229.38 990 500 990Z" data-figma-gradient-fill="{&#34;type&#34;:&#34;GRADIENT_DIAMOND&#34;,&#34;stops&#34;:[{&#34;color&#34;:{&#34;r&#34;:0.95686274766921997,&#34;g&#34;:0.87843137979507446,&#34;b&#34;:0.54117649793624878,&#34;a&#34;:1.0},&#34;position&#34;:0.0012585996882990003},{&#34;color&#34;:{&#34;r&#34;:0.55686277151107788,&#34;g&#34;:0.51121824979782104,&#34;b&#34;:0.31494697928428650,&#34;a&#34;:0.0},&#34;position&#34;:1.0}],&#34;stopsVar&#34;:[{&#34;color&#34;:{&#34;r&#34;:0.95686274766921997,&#34;g&#34;:0.87843137979507446,&#34;b&#34;:0.54117649793624878,&#34;a&#34;:1.0},&#34;position&#34;:0.0012585996882990003},{&#34;color&#34;:{&#34;r&#34;:0.55686277151107788,&#34;g&#34;:0.51121824979782104,&#34;b&#34;:0.31494697928428650,&#34;a&#34;:0.0},&#34;position&#34;:1.0}],&#34;transform&#34;:{&#34;m00&#34;:2986.0002441406250,&#34;m01&#34;:-501.49380493164062,&#34;m02&#34;:-742.25329589843750,&#34;m10&#34;:2683.0,&#34;m11&#34;:558.1291503906250,&#34;m12&#34;:-1093.0640869140625},&#34;opacity&#34;:0.69999998807907104,&#34;blendMode&#34;:&#34;NORMAL&#34;,&#34;visible&#34;:true}"/>
<path d="M500 990C770.62 990 990 770.62 990 500C990 229.38 770.62 10 500 10C229.38 10 10 229.38 10 500C10 770.62 229.38 990 500 990Z" stroke="#FEEC82" stroke-width="20"/>
<path d="M353.999 365.072L432.633 443.84V500.862L420.637 488.846L355.954 424.106V539.824L448.693 632.749V597.245L389.952 538.385V481.247L418.462 509.817L489.025 580.521L489.015 580.531V730L455.341 696.259L455.22 696.382L315.616 556.502L315.632 556.486V326.591L353.999 365.072ZM683.569 326.615L683.583 326.603V383.698L683.567 383.714L683.558 527.853L683.562 527.857V527.988L683.558 527.99V528.01H683.54L550.5 661.315V689.598L510.178 730V580.513L550.5 540.111V604.352L643.251 511.413L643.337 423.984L579.09 488.299L567.099 500.317V443.294L682.365 327.82L683.569 326.589V326.615ZM683.256 555.928L558.258 681.092L558.127 664.478L683.397 539.044L683.256 555.928ZM295.575 536.654L200.006 441.293H295.575V536.654ZM799.996 441.293L704.425 536.654V441.293H799.996ZM527.039 497.688H472.604V443.145H527.039V497.688ZM295.575 421.931H200L295.575 326.563V421.931ZM800 421.931H704.425V326.563L800 421.931ZM500.104 270.02L500.112 270.014L600.405 370.505L571.891 399.074L500.092 327.131L428.321 399.045L399.808 370.477L500.086 270L500.104 270.02Z" fill="#FFF0A5"/>
<g clip-path="url(#paint2_diamond_1146_17259_clip_path)" data-figma-skip-parse="true"><g transform="matrix(0.7775 0.7775 -0.167839 0.167839 500 512.65)"><rect x="0" y="0" width="350.258" height="1622.54" fill="url(#paint2_diamond_1146_17259)" opacity="0.7" shape-rendering="crispEdges"/><rect x="0" y="0" width="350.258" height="1622.54" transform="scale(1 -1)" fill="url(#paint2_diamond_1146_17259)" opacity="0.7" shape-rendering="crispEdges"/><rect x="0" y="0" width="350.258" height="1622.54" transform="scale(-1 1)" fill="url(#paint2_diamond_1146_17259)" opacity="0.7" shape-rendering="crispEdges"/><rect x="0" y="0" width="350.258" height="1622.54" transform="scale(-1)" fill="url(#paint2_diamond_1146_17259)" opacity="0.7" shape-rendering="crispEdges"/></g></g><path d="M353.999 365.072L432.633 443.84V500.862L420.637 488.846L355.954 424.106V539.824L448.693 632.749V597.245L389.952 538.385V481.247L418.462 509.817L489.025 580.521L489.015 580.531V730L455.341 696.259L455.22 696.382L315.616 556.502L315.632 556.486V326.591L353.999 365.072ZM683.569 326.615L683.583 326.603V383.698L683.567 383.714L683.558 527.853L683.562 527.857V527.988L683.558 527.99V528.01H683.54L550.5 661.315V689.598L510.178 730V580.513L550.5 540.111V604.352L643.251 511.413L643.337 423.984L579.09 488.299L567.099 500.317V443.294L682.365 327.82L683.569 326.589V326.615ZM683.256 555.928L558.258 681.092L558.127 664.478L683.397 539.044L683.256 555.928ZM295.575 536.654L200.006 441.293H295.575V536.654ZM799.996 441.293L704.425 536.654V441.293H799.996ZM527.039 497.688H472.604V443.145H527.039V497.688ZM295.575 421.931H200L295.575 326.563V421.931ZM800 421.931H704.425V326.563L800 421.931ZM500.104 270.02L500.112 270.014L600.405 370.505L571.891 399.074L500.092 327.131L428.321 399.045L399.808 370.477L500.086 270L500.104 270.02Z" data-figma-gradient-fill="{&#34;type&#34;:&#34;GRADIENT_DIAMOND&#34;,&#34;stops&#34;:[{&#34;color&#34;:{&#34;r&#34;:0.55686277151107788,&#34;g&#34;:0.51121824979782104,&#34;b&#34;:0.31494697928428650,&#34;a&#34;:0.0},&#34;position&#34;:0.0},{&#34;color&#34;:{&#34;r&#34;:0.88627451658248901,&#34;g&#34;:0.74509805440902710,&#34;b&#34;:0.34901961684226990,&#34;a&#34;:1.0},&#34;position&#34;:0.99874138832092285}],&#34;stopsVar&#34;:[{&#34;color&#34;:{&#34;r&#34;:0.55686277151107788,&#34;g&#34;:0.51121824979782104,&#34;b&#34;:0.31494697928428650,&#34;a&#34;:0.0},&#34;position&#34;:0.0},{&#34;color&#34;:{&#34;r&#34;:0.88627451658248901,&#34;g&#34;:0.74509805440902710,&#34;b&#34;:0.34901961684226990,&#34;a&#34;:1.0},&#34;position&#34;:0.99874138832092285}],&#34;transform&#34;:{&#34;m00&#34;:1554.9998779296875,&#34;m01&#34;:-335.67816162109375,&#34;m02&#34;:-109.66079711914062,&#34;m10&#34;:1554.9997558593750,&#34;m11&#34;:335.67810058593750,&#34;m12&#34;:-432.68847656250},&#34;opacity&#34;:0.69999998807907104,&#34;blendMode&#34;:&#34;NORMAL&#34;,&#34;visible&#34;:true}"/>
<path d="M500 872.5C705.726 872.5 872.5 705.726 872.5 500C872.5 294.274 705.726 127.5 500 127.5C294.274 127.5 127.5 294.274 127.5 500C127.5 705.726 294.274 872.5 500 872.5Z" stroke="#FEEC82" stroke-width="5"/>
<path d="M500 887.5C714.01 887.5 887.5 714.01 887.5 500C887.5 285.99 714.01 112.5 500 112.5C285.99 112.5 112.5 285.99 112.5 500C112.5 714.01 285.99 887.5 500 887.5Z" stroke="#FEEC82" stroke-width="5"/>
<path d="M180.04 237.487C178.924 238.779 177.599 239.692 176.065 240.227C174.526 240.702 172.962 240.816 171.371 240.569C169.775 240.261 168.332 239.55 167.041 238.434L146.123 220.355C144.832 219.239 143.935 217.928 143.432 216.421C142.924 214.855 142.811 213.29 143.09 211.727C143.365 210.104 144.061 208.647 145.177 207.356L163.214 186.486C164.33 185.195 165.657 184.312 167.195 183.837C168.729 183.302 170.308 183.172 171.931 183.447C173.522 183.694 174.963 184.375 176.255 185.491L179.257 188.086L173.147 195.156L170.484 192.854C170.387 192.77 170.294 192.747 170.206 192.783C170.114 192.76 170.026 192.796 169.942 192.893L152.449 213.133C152.365 213.23 152.328 213.339 152.336 213.459C152.341 213.519 152.391 213.591 152.488 213.675L172.728 231.168C172.825 231.252 172.92 231.305 173.012 231.329C173.1 231.292 173.186 231.225 173.27 231.129L190.763 210.889C190.847 210.792 190.886 210.713 190.882 210.653C190.873 210.533 190.82 210.431 190.724 210.347L185.01 205.409L178.356 213.108L171.335 207.039L184.099 192.271L197.173 203.57C198.464 204.686 199.363 206.028 199.87 207.594C200.345 209.132 200.445 210.713 200.17 212.336C199.891 213.899 199.193 215.327 198.077 216.618L180.04 237.487Z" fill="#FEEC82"/>
<path d="M222.757 192.883C221.461 193.993 220.014 194.699 218.418 194.999C216.826 195.24 215.262 195.119 213.725 194.638C212.194 194.096 210.872 193.177 209.762 191.881L191.772 170.886C190.662 169.59 189.97 168.16 189.697 166.596C189.429 164.971 189.55 163.407 190.059 161.903C190.573 160.339 191.478 159.002 192.774 157.891L213.769 139.902C215.032 138.819 216.46 138.157 218.052 137.917C219.649 137.616 221.229 137.723 222.793 138.237C224.33 138.719 225.653 139.607 226.764 140.903L244.753 161.898C245.864 163.194 246.553 164.654 246.821 166.279C247.062 167.871 246.925 169.449 246.411 171.013C245.902 172.517 245.015 173.81 243.752 174.893L222.757 192.883ZM217.01 185.586L237.325 168.179C237.422 168.096 237.473 168.024 237.477 167.964C237.487 167.844 237.45 167.735 237.366 167.638L219.96 147.323C219.876 147.226 219.788 147.189 219.696 147.212C219.608 147.175 219.515 147.198 219.418 147.282L199.104 164.688C199.007 164.772 198.953 164.873 198.944 164.994C198.939 165.054 198.979 165.133 199.062 165.23L216.469 185.544C216.552 185.641 216.638 185.709 216.725 185.746C216.818 185.722 216.913 185.669 217.01 185.586Z" fill="#FEEC82"/>
<path d="M265.307 158.942L240.84 119.818L248.654 114.932L268.2 146.187L299.455 126.641L304.376 134.509L265.307 158.942Z" fill="#FEEC82"/>
<path d="M314.364 129.67L296.027 87.395L329.788 72.751C331.353 72.072 332.932 71.852 334.524 72.092C336.139 72.275 337.618 72.843 338.961 73.795C340.287 74.708 341.29 75.948 341.969 77.513L352.971 102.878C353.65 104.444 353.878 106.042 353.656 107.673C353.416 109.266 352.82 110.733 351.868 112.076C350.938 113.363 349.69 114.347 348.125 115.026L314.364 129.67ZM319.419 117.361L344.021 106.69C344.138 106.639 344.208 106.586 344.23 106.53C344.274 106.418 344.271 106.303 344.22 106.185L333.575 81.643C333.524 81.525 333.451 81.464 333.355 81.459C333.282 81.397 333.187 81.392 333.07 81.443L308.468 92.114C308.39 92.148 308.329 92.221 308.284 92.334C308.223 92.407 308.218 92.502 308.269 92.619L318.914 117.162C318.965 117.279 319.047 117.36 319.159 117.405C319.254 117.41 319.341 117.395 319.419 117.361Z" fill="#FEEC82"/>
<path d="M373.758 105.57L361.926 61.034L402.997 50.123L405.38 59.092L373.34 67.604L375.673 76.387L401.466 69.535L403.866 78.566L378.072 85.418L380.406 94.202L412.446 85.689L414.829 94.658L373.758 105.57Z" fill="#FEEC82"/>
<path d="M434.824 91.0525L429.762 45.2514L439.495 44.1755L469.805 73.1495L466.276 41.2155L475.563 40.1895L480.625 85.9904L470.892 87.0665L440.441 57.9795L443.984 90.0405L434.824 91.0525Z" fill="#FEEC82"/>
<path d="M556.512 89.654L565.163 44.459L601.307 51.378C602.983 51.699 604.412 52.406 605.592 53.501C606.823 54.562 607.725 55.864 608.298 57.408C608.872 58.951 609.002 60.54 608.689 62.174L606.403 74.117C606.09 75.751 605.382 77.18 604.279 78.402C603.185 79.583 601.866 80.46 600.322 81.033C598.829 81.573 597.244 81.682 595.568 81.361L568.464 76.238L565.564 91.387L556.512 89.654ZM570.598 67.133L596.872 72.163C596.998 72.187 597.086 72.182 597.136 72.148C597.236 72.08 597.294 72.004 597.31 71.92L599.44 60.794C599.464 60.669 599.438 60.577 599.362 60.519C599.336 60.427 599.26 60.369 599.135 60.345L572.86 55.316C572.734 55.291 572.621 55.313 572.521 55.381C572.471 55.415 572.434 55.495 572.41 55.621L570.281 66.747C570.264 66.83 570.269 66.918 570.295 67.01C570.371 67.068 570.472 67.109 570.598 67.133Z" fill="#FEEC82"/>
<path d="M633.262 108.36L648.573 64.8984L657.205 67.9394L641.893 111.401L633.262 108.36Z" fill="#FEEC82"/>
<path d="M673.832 123.911L675.184 121.368L699.563 111.491L694.1 85.7598L695.451 83.2168L704.098 87.8108L708.412 107.93L727.441 100.212L736.032 104.775L734.681 107.319L710.302 117.196L715.851 142.9L714.47 145.5L705.822 140.906L701.423 120.813L682.48 128.505L673.832 123.911Z" fill="#FEEC82"/>
<path d="M729.742 155.349L757.184 118.332L791.322 143.64L785.796 151.095L759.164 131.352L753.752 138.652L775.191 154.546L769.626 162.052L748.187 146.158L742.775 153.459L769.407 173.202L763.88 180.657L729.742 155.349Z" fill="#FEEC82"/>
<path d="M780.398 195.276L813.097 162.717L819.599 169.248L793.477 195.259L819.488 221.381L812.912 227.929L780.398 195.276Z" fill="#FEEC82"/>
<path d="M120.161 261.914C121.564 259.472 123.468 258.942 125.872 260.323L126.871 260.897C129.313 262.299 129.833 264.222 128.43 266.663L127.761 267.829C126.337 270.308 124.404 270.846 121.962 269.443L120.963 268.869C118.559 267.488 118.068 265.558 119.492 263.079L120.161 261.914Z" fill="#FEEC82"/>
<path d="M67.2508 325.293L111.301 338.82L98.8068 379.505L89.2618 376.574L98.8068 345.494L91.0978 343.127L83.4138 368.15L73.8698 365.219L81.5538 340.196L64.3008 334.898L67.2508 325.293Z" fill="#FEEC82"/>
<path d="M43.8944 407.01C44.1044 405.317 44.7224 403.803 45.7474 402.468C46.7734 401.133 48.0584 400.132 49.6034 399.464C51.1474 398.796 52.7674 398.566 54.4604 398.777L90.7904 403.283L89.5684 413.128L53.7474 408.684L50.5324 434.597L86.3544 439.041L85.1174 449.013L48.7874 444.506C47.0934 444.296 45.5824 443.657 44.2534 442.589C42.9184 441.564 41.9174 440.279 41.2484 438.734C40.5754 437.232 40.3434 435.634 40.5534 433.94L43.8944 407.01Z" fill="#FEEC82"/>
<path d="M35.2656 481.547L81.3396 479.018L81.8836 488.923L45.7776 490.905L47.7606 527.011L37.7916 527.558L35.2656 481.547Z" fill="#FEEC82"/>
<path d="M40.0996 561.894L85.0486 551.461L87.2916 561.124L52.0676 569.3L60.2436 604.523L50.5186 606.781L40.0996 561.894Z" fill="#FEEC82"/>
<path d="M72.5645 635.189L81.6605 631.564L91.5424 656.355L82.4465 659.98L72.5645 635.189Z" fill="#FEEC82"/>
<path d="M85.8274 703.916C84.9364 702.411 84.4874 700.817 84.4824 699.134C84.4994 697.488 84.8954 695.939 85.6724 694.487C86.4854 693.014 87.6444 691.831 89.1494 690.939L112.495 677.108C114 676.216 115.576 675.779 117.222 675.795C118.905 675.79 120.473 676.176 121.925 676.952C123.398 677.765 124.581 678.924 125.473 680.429L144.066 711.815L135.477 716.904L118.188 687.721C117.84 687.133 117.421 686.762 116.932 686.605C116.464 686.486 115.918 686.611 115.294 686.98L96.4634 698.137C95.8754 698.484 95.5034 698.903 95.3474 699.393C95.2494 699.897 95.3744 700.443 95.7224 701.03L113.011 730.213L104.421 735.302L85.8274 703.916Z" fill="#FEEC82"/>
<path d="M135.354 780.533L148.344 769.234L156.135 734.211L163.906 743.145L159.685 765.987L182.849 764.923L190.703 773.953L154.848 776.81L141.907 788.066L135.354 780.533Z" fill="#FEEC82"/>
<path d="M185.854 835.456C184.488 834.364 183.505 833.031 182.905 831.459C182.338 829.913 182.161 828.324 182.374 826.691C182.613 825.025 183.279 823.509 184.371 822.143L201.318 800.949C202.41 799.583 203.729 798.616 205.275 798.049C206.847 797.449 208.45 797.255 210.082 797.468C211.748 797.708 213.265 798.374 214.631 799.466L243.123 822.248L236.888 830.045L210.395 808.863C209.862 808.436 209.339 808.237 208.826 808.263C208.346 808.317 207.88 808.627 207.427 809.193L193.758 826.288C193.332 826.822 193.132 827.345 193.159 827.858C193.245 828.364 193.555 828.831 194.089 829.257L220.581 850.439L214.346 858.239L185.854 835.456Z" fill="#FEEC82"/>
<path d="M245.199 882.039L267.198 841.479L275.918 846.208L258.679 877.999L290.464 895.229L285.704 904.009L245.199 882.039Z" fill="#FEEC82"/>
<path d="M316.051 919.969L330.721 876.279L371.066 889.829L367.888 899.299L337.067 888.949L334.5 896.589L359.315 904.929L356.136 914.389L331.322 906.059L328.755 913.699L359.576 924.049L356.397 933.519L316.051 919.969Z" fill="#FEEC82"/>
<path d="M431.529 952.658L434.127 906.658L470.613 908.718C472.359 908.808 473.911 909.328 475.269 910.258C476.669 911.188 477.754 912.408 478.525 913.908C479.34 915.358 479.698 916.958 479.599 918.708L478.07 945.798C477.973 947.508 477.437 949.058 476.461 950.458C475.527 951.858 474.312 952.938 472.815 953.708C471.362 954.478 469.761 954.818 468.015 954.718L431.529 952.658ZM441.932 943.248L468.066 944.728L469.539 918.648L443.404 917.178L441.932 943.248Z" fill="#FEEC82"/>
<path d="M515.058 955.62L511.639 909.669L521.404 908.939L524.823 954.89L515.058 955.62Z" fill="#FEEC82"/>
<path d="M561.541 952.198C559.869 952.548 558.237 952.448 556.643 951.908C555.05 951.368 553.688 950.468 552.558 949.228C551.429 947.978 550.691 946.518 550.345 944.848L544.843 918.278C544.488 916.558 544.586 914.928 545.136 913.378C545.677 911.788 546.572 910.418 547.819 909.288C549.067 908.158 550.526 907.428 552.197 907.078L578.707 901.588C580.42 901.238 582.052 901.328 583.604 901.878C585.198 902.428 586.559 903.318 587.689 904.568C588.852 905.758 589.611 907.218 589.965 908.928L590.848 913.188L581.009 915.228L580.23 911.468L554.66 916.768L559.955 942.338L585.525 937.038L584.123 930.268L574.346 932.298L572.322 922.518L591.938 918.458L595.468 935.508C595.814 937.178 595.695 938.808 595.112 940.418C594.57 942.008 593.676 943.368 592.428 944.498C591.223 945.618 589.763 946.358 588.05 946.708L561.541 952.198Z" fill="#FEEC82"/>
<path d="M633.604 935.498L618.496 891.958L627.746 888.748L642.855 932.288L633.604 935.498Z" fill="#FEEC82"/>
<path d="M683.236 917.298L667.265 884.928L651.079 892.908L646.662 883.958L687.986 863.568L692.403 872.528L676.218 880.508L692.189 912.878L683.236 917.298Z" fill="#FEEC82"/>
<path d="M739.843 889.189L718.09 859.749C717.051 858.339 716.456 856.819 716.305 855.179C716.13 853.509 716.372 851.899 717.031 850.349C717.691 848.799 718.707 847.519 720.08 846.499L741.854 830.416C743.261 829.377 744.784 828.782 746.424 828.632C748.098 828.456 749.709 828.698 751.257 829.358C752.815 829.958 754.113 830.961 755.152 832.368L776.905 861.809L768.824 867.779L760.001 855.839L738.999 871.359L747.822 883.299L739.843 889.189ZM733.066 863.329L754.068 847.809L747.375 838.751L726.373 854.269L733.066 863.329Z" fill="#FEEC82"/>
<path d="M807.778 838.213L774.148 806.618L780.94 799.388L807.294 824.147L832.053 797.793L839.325 804.629L807.778 838.213Z" fill="#FEEC82"/>
<path d="M886.796 745.444L854.456 728.288C852.916 727.468 851.716 726.352 850.876 724.938C849.996 723.504 849.516 721.947 849.446 720.266C849.366 718.584 849.736 716.99 850.526 715.482L863.216 691.567C864.036 690.021 865.156 688.827 866.566 687.983C868.006 687.101 869.556 686.623 871.236 686.549C872.906 686.418 874.506 686.762 876.056 687.581L908.396 704.737L903.686 713.613L890.566 706.655L878.336 729.722L891.446 736.68L886.796 745.444ZM869.516 725.044L881.746 701.976L871.796 696.698L859.556 719.765L869.516 725.044Z" fill="#FEEC82"/>
<path d="M928.946 661.424C928.436 663.052 927.556 664.431 926.306 665.559C925.056 666.687 923.606 667.441 921.966 667.821C920.326 668.2 918.696 668.134 917.066 667.623L891.176 659.493C889.506 658.969 888.136 658.089 887.046 656.853C885.916 655.604 885.166 654.16 884.786 652.52C884.406 650.88 884.466 649.246 884.976 647.618L893.096 621.79C893.616 620.121 894.496 618.742 895.736 617.655C896.976 616.526 898.426 615.773 900.066 615.393C901.676 614.96 903.316 615.006 904.986 615.53L909.136 616.834L906.126 626.42L902.466 625.27L894.636 650.182L919.556 658.005L927.376 633.093L920.786 631.022L917.786 640.547L908.266 637.556L914.266 618.444L930.876 623.66C932.506 624.171 933.876 625.072 934.986 626.361C936.116 627.61 936.876 629.054 937.256 630.694C937.646 632.293 937.576 633.927 937.056 635.596L928.946 661.424Z" fill="#FEEC82"/>
<path d="M950.806 589.614L905.086 583.827L910.436 541.604L920.336 542.858L916.256 575.113L924.256 576.125L927.546 550.157L937.446 551.41L934.166 577.379L942.166 578.392L946.246 546.137L956.146 547.391L950.806 589.614Z" fill="#FEEC82"/>
<path d="M960.566 510.966L914.546 513.343L914.016 503.117L943.366 475.774L912.686 477.359L912.166 467.325L958.186 464.947L958.716 475.174L929.246 502.651L960.046 501.059L960.566 510.966Z" fill="#FEEC82"/>
<path d="M953.557 417.237C953.957 418.939 953.917 420.595 953.417 422.203C952.917 423.77 952.077 425.131 950.897 426.286C949.687 427.451 948.227 428.236 946.527 428.64L920.117 434.903C918.417 435.306 916.787 435.256 915.217 434.75C913.607 434.255 912.227 433.421 911.077 432.248C909.907 431.033 909.127 429.575 908.717 427.873L900.297 392.378L910.017 390.073L917.847 423.077C917.997 423.742 918.287 424.221 918.707 424.516C919.117 424.769 919.677 424.812 920.387 424.645L941.687 419.593C942.347 419.436 942.827 419.146 943.117 418.726C943.367 418.273 943.407 417.715 943.247 417.051L935.417 384.046L945.137 381.742L953.557 417.237Z" fill="#FEEC82"/>
<path d="M929.036 329.206L913.266 336.104L895.356 367.194L890.616 356.346L901.466 335.812L879.046 329.9L874.256 318.934L909.326 326.93L925.036 320.059L929.036 329.206Z" fill="#FEEC82"/>
<path d="M861.075 239.6C862.765 241.854 862.495 243.812 860.275 245.475L859.355 246.165C857.105 247.854 855.135 247.571 853.445 245.318L852.635 244.242C850.925 241.954 851.195 239.966 853.445 238.278L854.365 237.587C856.585 235.924 858.555 236.237 860.265 238.524L861.075 239.6Z" fill="#FEEC82"/>
<path d="M500 990C770.62 990 990 770.62 990 500C990 229.38 770.62 10 500 10C229.38 10 10 229.38 10 500C10 770.62 229.38 990 500 990Z" fill="#B98633"/>
<g clip-path="url(#paint3_diamond_1146_17259_clip_path)" data-figma-skip-parse="true"><g transform="matrix(1.493 1.3415 -0.250747 0.279065 500 527.5)"><rect x="0" y="0" width="354.616" height="1902.73" fill="url(#paint3_diamond_1146_17259)" opacity="0.7" shape-rendering="crispEdges"/><rect x="0" y="0" width="354.616" height="1902.73" transform="scale(1 -1)" fill="url(#paint3_diamond_1146_17259)" opacity="0.7" shape-rendering="crispEdges"/><rect x="0" y="0" width="354.616" height="1902.73" transform="scale(-1 1)" fill="url(#paint3_diamond_1146_17259)" opacity="0.7" shape-rendering="crispEdges"/><rect x="0" y="0" width="354.616" height="1902.73" transform="scale(-1)" fill="url(#paint3_diamond_1146_17259)" opacity="0.7" shape-rendering="crispEdges"/></g></g><path d="M500 990C770.62 990 990 770.62 990 500C990 229.38 770.62 10 500 10C229.38 10 10 229.38 10 500C10 770.62 229.38 990 500 990Z" data-figma-gradient-fill="{&#34;type&#34;:&#34;GRADIENT_DIAMOND&#34;,&#34;stops&#34;:[{&#34;color&#34;:{&#34;r&#34;:0.95686274766921997,&#34;g&#34;:0.87843137979507446,&#34;b&#34;:0.54117649793624878,&#34;a&#34;:1.0},&#34;position&#34;:0.0012585996882990003},{&#34;color&#34;:{&#34;r&#34;:0.55686277151107788,&#34;g&#34;:0.51121824979782104,&#34;b&#34;:0.31494697928428650,&#34;a&#34;:0.0},&#34;position&#34;:1.0}],&#34;stopsVar&#34;:[{&#34;color&#34;:{&#34;r&#34;:0.95686274766921997,&#34;g&#34;:0.87843137979507446,&#34;b&#34;:0.54117649793624878,&#34;a&#34;:1.0},&#34;position&#34;:0.0012585996882990003},{&#34;color&#34;:{&#34;r&#34;:0.55686277151107788,&#34;g&#34;:0.51121824979782104,&#34;b&#34;:0.31494697928428650,&#34;a&#34;:0.0},&#34;position&#34;:1.0}],&#34;transform&#34;:{&#34;m00&#34;:2986.0002441406250,&#34;m01&#34;:-501.49380493164062,&#34;m02&#34;:-742.25329589843750,&#34;m10&#34;:2683.0,&#34;m11&#34;:558.1291503906250,&#34;m12&#34;:-1093.0640869140625},&#34;opacity&#34;:0.69999998807907104,&#34;blendMode&#34;:&#34;NORMAL&#34;,&#34;visible&#34;:true}"/>
<path d="M500 990C770.62 990 990 770.62 990 500C990 229.38 770.62 10 500 10C229.38 10 10 229.38 10 500C10 770.62 229.38 990 500 990Z" stroke="#FEEC82" stroke-width="20"/>
<path d="M500 990C770.62 990 990 770.62 990 500C990 229.38 770.62 10 500 10C229.38 10 10 229.38 10 500C10 770.62 229.38 990 500 990Z" fill="#B98633"/>
<g clip-path="url(#paint4_diamond_1146_17259_clip_path)" data-figma-skip-parse="true"><g transform="matrix(1.493 1.3415 -0.250747 0.279065 500 527.5)"><rect x="0" y="0" width="354.616" height="1902.73" fill="url(#paint4_diamond_1146_17259)" opacity="0.7" shape-rendering="crispEdges"/><rect x="0" y="0" width="354.616" height="1902.73" transform="scale(1 -1)" fill="url(#paint4_diamond_1146_17259)" opacity="0.7" shape-rendering="crispEdges"/><rect x="0" y="0" width="354.616" height="1902.73" transform="scale(-1 1)" fill="url(#paint4_diamond_1146_17259)" opacity="0.7" shape-rendering="crispEdges"/><rect x="0" y="0" width="354.616" height="1902.73" transform="scale(-1)" fill="url(#paint4_diamond_1146_17259)" opacity="0.7" shape-rendering="crispEdges"/></g></g><path d="M500 990C770.62 990 990 770.62 990 500C990 229.38 770.62 10 500 10C229.38 10 10 229.38 10 500C10 770.62 229.38 990 500 990Z" data-figma-gradient-fill="{&#34;type&#34;:&#34;GRADIENT_DIAMOND&#34;,&#34;stops&#34;:[{&#34;color&#34;:{&#34;r&#34;:0.95686274766921997,&#34;g&#34;:0.87843137979507446,&#34;b&#34;:0.54117649793624878,&#34;a&#34;:1.0},&#34;position&#34;:0.0012585996882990003},{&#34;color&#34;:{&#34;r&#34;:0.55686277151107788,&#34;g&#34;:0.51121824979782104,&#34;b&#34;:0.31494697928428650,&#34;a&#34;:0.0},&#34;position&#34;:1.0}],&#34;stopsVar&#34;:[{&#34;color&#34;:{&#34;r&#34;:0.95686274766921997,&#34;g&#34;:0.87843137979507446,&#34;b&#34;:0.54117649793624878,&#34;a&#34;:1.0},&#34;position&#34;:0.0012585996882990003},{&#34;color&#34;:{&#34;r&#34;:0.55686277151107788,&#34;g&#34;:0.51121824979782104,&#34;b&#34;:0.31494697928428650,&#34;a&#34;:0.0},&#34;position&#34;:1.0}],&#34;transform&#34;:{&#34;m00&#34;:2986.0002441406250,&#34;m01&#34;:-501.49380493164062,&#34;m02&#34;:-742.25329589843750,&#34;m10&#34;:2683.0,&#34;m11&#34;:558.1291503906250,&#34;m12&#34;:-1093.0640869140625},&#34;opacity&#34;:0.69999998807907104,&#34;blendMode&#34;:&#34;NORMAL&#34;,&#34;visible&#34;:true}"/>
<path d="M500 990C770.62 990 990 770.62 990 500C990 229.38 770.62 10 500 10C229.38 10 10 229.38 10 500C10 770.62 229.38 990 500 990Z" stroke="#FEEC82" stroke-width="20"/>
<path d="M353.999 365.072L432.633 443.84V500.862L420.637 488.846L355.954 424.106V539.824L448.693 632.749V597.245L389.952 538.385V481.247L418.462 509.817L489.025 580.521L489.015 580.531V730L455.341 696.259L455.22 696.382L315.616 556.502L315.632 556.486V326.591L353.999 365.072ZM683.569 326.615L683.583 326.603V383.698L683.567 383.714L683.558 527.853L683.562 527.857V527.988L683.558 527.99V528.01H683.54L550.5 661.315V689.598L510.178 730V580.513L550.5 540.111V604.352L643.251 511.413L643.337 423.984L579.09 488.299L567.099 500.317V443.294L682.365 327.82L683.569 326.589V326.615ZM683.256 555.928L558.258 681.092L558.127 664.478L683.397 539.044L683.256 555.928ZM295.575 536.654L200.006 441.293H295.575V536.654ZM799.996 441.293L704.425 536.654V441.293H799.996ZM527.039 497.688H472.604V443.145H527.039V497.688ZM295.575 421.931H200L295.575 326.563V421.931ZM800 421.931H704.425V326.563L800 421.931ZM500.104 270.02L500.112 270.014L600.405 370.505L571.891 399.074L500.092 327.131L428.321 399.045L399.808 370.477L500.086 270L500.104 270.02Z" fill="#FFF0A5"/>
<g clip-path="url(#paint5_diamond_1146_17259_clip_path)" data-figma-skip-parse="true"><g transform="matrix(0.7775 0.7775 -0.167839 0.167839 500 512.65)"><rect x="0" y="0" width="350.258" height="1622.54" fill="url(#paint5_diamond_1146_17259)" opacity="0.7" shape-rendering="crispEdges"/><rect x="0" y="0" width="350.258" height="1622.54" transform="scale(1 -1)" fill="url(#paint5_diamond_1146_17259)" opacity="0.7" shape-rendering="crispEdges"/><rect x="0" y="0" width="350.258" height="1622.54" transform="scale(-1 1)" fill="url(#paint5_diamond_1146_17259)" opacity="0.7" shape-rendering="crispEdges"/><rect x="0" y="0" width="350.258" height="1622.54" transform="scale(-1)" fill="url(#paint5_diamond_1146_17259)" opacity="0.7" shape-rendering="crispEdges"/></g></g><path d="M353.999 365.072L432.633 443.84V500.862L420.637 488.846L355.954 424.106V539.824L448.693 632.749V597.245L389.952 538.385V481.247L418.462 509.817L489.025 580.521L489.015 580.531V730L455.341 696.259L455.22 696.382L315.616 556.502L315.632 556.486V326.591L353.999 365.072ZM683.569 326.615L683.583 326.603V383.698L683.567 383.714L683.558 527.853L683.562 527.857V527.988L683.558 527.99V528.01H683.54L550.5 661.315V689.598L510.178 730V580.513L550.5 540.111V604.352L643.251 511.413L643.337 423.984L579.09 488.299L567.099 500.317V443.294L682.365 327.82L683.569 326.589V326.615ZM683.256 555.928L558.258 681.092L558.127 664.478L683.397 539.044L683.256 555.928ZM295.575 536.654L200.006 441.293H295.575V536.654ZM799.996 441.293L704.425 536.654V441.293H799.996ZM527.039 497.688H472.604V443.145H527.039V497.688ZM295.575 421.931H200L295.575 326.563V421.931ZM800 421.931H704.425V326.563L800 421.931ZM500.104 270.02L500.112 270.014L600.405 370.505L571.891 399.074L500.092 327.131L428.321 399.045L399.808 370.477L500.086 270L500.104 270.02Z" data-figma-gradient-fill="{&#34;type&#34;:&#34;GRADIENT_DIAMOND&#34;,&#34;stops&#34;:[{&#34;color&#34;:{&#34;r&#34;:0.55686277151107788,&#34;g&#34;:0.51121824979782104,&#34;b&#34;:0.31494697928428650,&#34;a&#34;:0.0},&#34;position&#34;:0.0},{&#34;color&#34;:{&#34;r&#34;:0.88627451658248901,&#34;g&#34;:0.74509805440902710,&#34;b&#34;:0.34901961684226990,&#34;a&#34;:1.0},&#34;position&#34;:0.99874138832092285}],&#34;stopsVar&#34;:[{&#34;color&#34;:{&#34;r&#34;:0.55686277151107788,&#34;g&#34;:0.51121824979782104,&#34;b&#34;:0.31494697928428650,&#34;a&#34;:0.0},&#34;position&#34;:0.0},{&#34;color&#34;:{&#34;r&#34;:0.88627451658248901,&#34;g&#34;:0.74509805440902710,&#34;b&#34;:0.34901961684226990,&#34;a&#34;:1.0},&#34;position&#34;:0.99874138832092285}],&#34;transform&#34;:{&#34;m00&#34;:1554.9998779296875,&#34;m01&#34;:-335.67816162109375,&#34;m02&#34;:-109.66079711914062,&#34;m10&#34;:1554.9997558593750,&#34;m11&#34;:335.67810058593750,&#34;m12&#34;:-432.68847656250},&#34;opacity&#34;:0.69999998807907104,&#34;blendMode&#34;:&#34;NORMAL&#34;,&#34;visible&#34;:true}"/>
<path d="M500 872.5C705.726 872.5 872.5 705.726 872.5 500C872.5 294.274 705.726 127.5 500 127.5C294.274 127.5 127.5 294.274 127.5 500C127.5 705.726 294.274 872.5 500 872.5Z" stroke="#FEEC82" stroke-width="5"/>
<path d="M500 887.5C714.01 887.5 887.5 714.01 887.5 500C887.5 285.99 714.01 112.5 500 112.5C285.99 112.5 112.5 285.99 112.5 500C112.5 714.01 285.99 887.5 500 887.5Z" stroke="#FEEC82" stroke-width="5"/>
<path d="M180.04 237.487C178.924 238.779 177.599 239.692 176.065 240.227C174.526 240.702 172.962 240.816 171.371 240.569C169.775 240.261 168.332 239.55 167.041 238.434L146.123 220.355C144.832 219.239 143.935 217.928 143.432 216.421C142.924 214.855 142.811 213.29 143.09 211.727C143.365 210.104 144.061 208.647 145.177 207.356L163.214 186.486C164.33 185.195 165.657 184.312 167.195 183.837C168.729 183.302 170.308 183.172 171.931 183.447C173.522 183.694 174.963 184.375 176.255 185.491L179.257 188.086L173.147 195.156L170.484 192.854C170.387 192.77 170.294 192.747 170.206 192.783C170.114 192.76 170.026 192.796 169.942 192.893L152.449 213.133C152.365 213.23 152.328 213.339 152.336 213.459C152.341 213.519 152.391 213.591 152.488 213.675L172.728 231.168C172.825 231.252 172.92 231.305 173.012 231.329C173.1 231.292 173.186 231.225 173.27 231.129L190.763 210.889C190.847 210.792 190.886 210.713 190.882 210.653C190.873 210.533 190.82 210.431 190.724 210.347L185.01 205.409L178.356 213.108L171.335 207.039L184.099 192.271L197.173 203.57C198.464 204.686 199.363 206.028 199.87 207.594C200.345 209.132 200.445 210.713 200.17 212.336C199.891 213.899 199.193 215.327 198.077 216.618L180.04 237.487Z" fill="#FEEC82"/>
<path d="M222.757 192.883C221.461 193.993 220.014 194.699 218.418 194.999C216.826 195.24 215.262 195.119 213.725 194.638C212.194 194.096 210.872 193.177 209.762 191.881L191.772 170.886C190.662 169.59 189.97 168.16 189.697 166.596C189.429 164.971 189.55 163.407 190.059 161.903C190.573 160.339 191.478 159.002 192.774 157.891L213.769 139.902C215.032 138.819 216.46 138.157 218.052 137.917C219.649 137.616 221.229 137.723 222.793 138.237C224.33 138.719 225.653 139.607 226.764 140.903L244.753 161.898C245.864 163.194 246.553 164.654 246.821 166.279C247.062 167.871 246.925 169.449 246.411 171.013C245.902 172.517 245.015 173.81 243.752 174.893L222.757 192.883ZM217.01 185.586L237.325 168.179C237.422 168.096 237.473 168.024 237.477 167.964C237.487 167.844 237.45 167.735 237.366 167.638L219.96 147.323C219.876 147.226 219.788 147.189 219.696 147.212C219.608 147.175 219.515 147.198 219.418 147.282L199.104 164.688C199.007 164.772 198.953 164.873 198.944 164.994C198.939 165.054 198.979 165.133 199.062 165.23L216.469 185.544C216.552 185.641 216.638 185.709 216.725 185.746C216.818 185.722 216.913 185.669 217.01 185.586Z" fill="#FEEC82"/>
<path d="M265.307 158.944L240.84 119.82L248.654 114.934L268.2 146.189L299.455 126.643L304.376 134.511L265.307 158.944Z" fill="#FEEC82"/>
<path d="M314.364 129.67L296.027 87.395L329.788 72.751C331.353 72.072 332.932 71.852 334.524 72.092C336.139 72.275 337.618 72.843 338.961 73.795C340.287 74.708 341.29 75.948 341.969 77.513L352.971 102.878C353.65 104.444 353.878 106.042 353.656 107.673C353.416 109.266 352.82 110.733 351.868 112.076C350.938 113.363 349.69 114.347 348.125 115.026L314.364 129.67ZM319.419 117.361L344.021 106.69C344.138 106.639 344.208 106.586 344.23 106.53C344.274 106.418 344.271 106.303 344.22 106.185L333.575 81.643C333.524 81.525 333.451 81.464 333.355 81.459C333.282 81.397 333.187 81.392 333.07 81.443L308.468 92.114C308.39 92.148 308.329 92.221 308.284 92.334C308.223 92.407 308.218 92.502 308.269 92.619L318.914 117.162C318.965 117.279 319.047 117.36 319.159 117.405C319.254 117.41 319.341 117.395 319.419 117.361Z" fill="#FEEC82"/>
<path d="M373.76 105.572L361.928 61.036L402.999 50.125L405.382 59.094L373.342 67.606L375.675 76.389L401.468 69.537L403.867 78.568L378.074 85.42L380.408 94.204L412.448 85.691L414.831 94.66L373.76 105.572Z" fill="#FEEC82"/>
<path d="M434.824 91.0525L429.762 45.2514L439.495 44.1755L469.805 73.1495L466.276 41.2155L475.563 40.1895L480.625 85.9904L470.892 87.0665L440.441 57.9795L443.984 90.0405L434.824 91.0525Z" fill="#FEEC82"/>
<path d="M556.512 89.654L565.163 44.459L601.307 51.378C602.983 51.699 604.412 52.406 605.592 53.501C606.823 54.562 607.725 55.864 608.298 57.408C608.872 58.951 609.002 60.54 608.689 62.174L606.403 74.117C606.09 75.751 605.382 77.18 604.279 78.402C603.185 79.583 601.866 80.46 600.322 81.033C598.829 81.573 597.244 81.682 595.568 81.361L568.464 76.238L565.564 91.387L556.512 89.654ZM570.598 67.133L596.872 72.163C596.998 72.187 597.086 72.182 597.136 72.148C597.236 72.08 597.294 72.004 597.31 71.92L599.44 60.794C599.464 60.669 599.438 60.577 599.362 60.519C599.336 60.427 599.26 60.369 599.135 60.345L572.86 55.316C572.734 55.291 572.621 55.313 572.521 55.381C572.471 55.415 572.434 55.495 572.41 55.621L570.281 66.747C570.264 66.83 570.269 66.918 570.295 67.01C570.371 67.068 570.472 67.109 570.598 67.133Z" fill="#FEEC82"/>
<path d="M633.262 108.36L648.573 64.8984L657.205 67.9394L641.893 111.401L633.262 108.36Z" fill="#FEEC82"/>
<path d="M673.834 123.911L675.186 121.368L699.565 111.491L694.102 85.7598L695.453 83.2168L704.1 87.8108L708.414 107.93L727.443 100.212L736.034 104.775L734.683 107.319L710.303 117.196L715.853 142.9L714.472 145.5L705.824 140.906L701.425 120.813L682.482 128.505L673.834 123.911Z" fill="#FEEC82"/>
<path d="M729.742 155.349L757.184 118.332L791.322 143.64L785.796 151.095L759.164 131.352L753.752 138.652L775.191 154.546L769.626 162.052L748.187 146.158L742.775 153.459L769.407 173.202L763.88 180.657L729.742 155.349Z" fill="#FEEC82"/>
<path d="M780.398 195.276L813.097 162.717L819.599 169.248L793.477 195.259L819.488 221.381L812.912 227.929L780.398 195.276Z" fill="#FEEC82"/>
<path d="M120.161 261.914C121.564 259.472 123.468 258.942 125.872 260.323L126.871 260.897C129.313 262.299 129.833 264.222 128.43 266.663L127.761 267.829C126.337 270.308 124.404 270.846 121.962 269.443L120.963 268.869C118.559 267.488 118.068 265.558 119.492 263.079L120.161 261.914Z" fill="#FEEC82"/>
<path d="M67.2527 325.293L111.302 338.82L98.8087 379.505L89.2637 376.574L98.8087 345.494L91.0997 343.127L83.4157 368.15L73.8717 365.219L81.5557 340.196L64.3027 334.898L67.2527 325.293Z" fill="#FEEC82"/>
<path d="M43.8963 407.01C44.1063 405.317 44.7243 403.803 45.7493 402.468C46.7753 401.133 48.0603 400.132 49.6053 399.464C51.1493 398.796 52.7683 398.566 54.4623 398.777L90.7923 403.283L89.5703 413.128L53.7493 408.684L50.5343 434.597L86.3563 439.041L85.1193 449.013L48.7893 444.506C47.0953 444.296 45.5843 443.657 44.2553 442.589C42.9203 441.564 41.9193 440.279 41.2503 438.734C40.5773 437.232 40.3453 435.634 40.5553 433.94L43.8963 407.01Z" fill="#FEEC82"/>
<path d="M35.2656 481.549L81.3396 479.02L81.8836 488.926L45.7776 490.908L47.7606 527.013L37.7916 527.56L35.2656 481.549Z" fill="#FEEC82"/>
<path d="M40.1016 561.894L85.0506 551.461L87.2935 561.124L52.0695 569.3L60.2456 604.523L50.5206 606.781L40.1016 561.894Z" fill="#FEEC82"/>
<path d="M72.5645 635.189L81.6605 631.564L91.5424 656.355L82.4465 659.98L72.5645 635.189Z" fill="#FEEC82"/>
<path d="M85.8294 703.916C84.9384 702.411 84.4894 700.817 84.4844 699.134C84.5014 697.488 84.8974 695.939 85.6744 694.487C86.4874 693.014 87.6464 691.831 89.1514 690.939L112.497 677.108C114.002 676.216 115.578 675.779 117.224 675.795C118.907 675.79 120.475 676.176 121.927 676.952C123.4 677.765 124.583 678.924 125.474 680.429L144.068 711.815L135.479 716.904L118.19 687.721C117.842 687.133 117.423 686.762 116.934 686.605C116.466 686.486 115.92 686.611 115.296 686.98L96.4654 698.137C95.8774 698.484 95.5054 698.903 95.3494 699.393C95.2514 699.897 95.3764 700.443 95.7244 701.03L113.013 730.213L104.423 735.302L85.8294 703.916Z" fill="#FEEC82"/>
<path d="M135.354 780.533L148.344 769.234L156.135 734.211L163.906 743.145L159.685 765.987L182.849 764.923L190.703 773.953L154.848 776.81L141.907 788.066L135.354 780.533Z" fill="#FEEC82"/>
<path d="M185.854 835.458C184.488 834.366 183.505 833.033 182.905 831.461C182.338 829.915 182.161 828.326 182.374 826.693C182.613 825.027 183.279 823.511 184.371 822.145L201.318 800.951C202.41 799.585 203.729 798.618 205.275 798.051C206.847 797.451 208.45 797.257 210.082 797.47C211.748 797.71 213.265 798.376 214.631 799.468L243.123 822.25L236.888 830.047L210.395 808.865C209.862 808.438 209.339 808.238 208.826 808.265C208.346 808.319 207.88 808.629 207.427 809.195L193.758 826.29C193.332 826.824 193.132 827.347 193.159 827.86C193.245 828.366 193.555 828.833 194.089 829.259L220.581 850.439L214.346 858.239L185.854 835.458Z" fill="#FEEC82"/>
<path d="M245.201 882.039L267.2 841.479L275.92 846.208L258.681 877.999L290.466 895.229L285.706 904.009L245.201 882.039Z" fill="#FEEC82"/>
<path d="M316.051 919.969L330.721 876.279L371.066 889.829L367.888 899.299L337.067 888.949L334.5 896.589L359.315 904.929L356.136 914.389L331.322 906.059L328.755 913.699L359.576 924.049L356.397 933.519L316.051 919.969Z" fill="#FEEC82"/>
<path d="M431.529 952.658L434.127 906.658L470.613 908.718C472.359 908.818 473.911 909.328 475.269 910.258C476.669 911.198 477.754 912.408 478.525 913.908C479.34 915.358 479.698 916.968 479.599 918.708L478.07 945.798C477.973 947.508 477.437 949.058 476.461 950.458C475.527 951.858 474.312 952.938 472.815 953.708C471.362 954.488 469.761 954.818 468.015 954.718L431.529 952.658ZM441.932 943.248L468.066 944.728L469.539 918.658L443.404 917.178L441.932 943.248Z" fill="#FEEC82"/>
<path d="M515.059 955.62L511.641 909.669L521.406 908.939L524.825 954.89L515.059 955.62Z" fill="#FEEC82"/>
<path d="M561.541 952.198C559.869 952.548 558.237 952.448 556.643 951.908C555.05 951.368 553.688 950.468 552.558 949.228C551.429 947.978 550.691 946.518 550.345 944.848L544.843 918.278C544.488 916.558 544.586 914.928 545.136 913.378C545.677 911.788 546.572 910.418 547.819 909.288C549.067 908.158 550.526 907.428 552.197 907.078L578.707 901.588C580.42 901.238 582.052 901.328 583.604 901.878C585.198 902.428 586.559 903.318 587.689 904.568C588.852 905.758 589.611 907.218 589.965 908.928L590.848 913.188L581.009 915.228L580.23 911.468L554.66 916.768L559.955 942.338L585.525 937.038L584.123 930.268L574.346 932.298L572.322 922.518L591.938 918.458L595.468 935.508C595.814 937.178 595.695 938.808 595.112 940.418C594.57 942.008 593.676 943.368 592.428 944.498C591.223 945.618 589.763 946.358 588.05 946.708L561.541 952.198Z" fill="#FEEC82"/>
<path d="M633.606 935.498L618.498 891.958L627.748 888.748L642.857 932.288L633.606 935.498Z" fill="#FEEC82"/>
<path d="M683.238 917.298L667.267 884.928L651.081 892.908L646.664 883.958L687.988 863.568L692.405 872.528L676.22 880.508L692.191 912.878L683.238 917.298Z" fill="#FEEC82"/>
<path d="M739.843 889.189L718.09 859.749C717.051 858.339 716.456 856.819 716.305 855.179C716.13 853.509 716.372 851.899 717.031 850.349C717.691 848.799 718.707 847.519 720.08 846.499L741.854 830.416C743.261 829.377 744.784 828.782 746.424 828.632C748.098 828.456 749.709 828.698 751.257 829.358C752.815 829.958 754.113 830.961 755.152 832.368L776.905 861.809L768.824 867.779L760.001 855.839L738.999 871.359L747.822 883.299L739.843 889.189ZM733.066 863.329L754.068 847.809L747.375 838.751L726.373 854.269L733.066 863.329Z" fill="#FEEC82"/>
<path d="M807.78 838.213L774.15 806.618L780.942 799.388L807.296 824.147L832.055 797.793L839.335 804.629L807.78 838.213Z" fill="#FEEC82"/>
<path d="M886.796 745.445L854.466 728.289C852.916 727.469 851.726 726.354 850.876 724.94C849.996 723.506 849.516 721.949 849.446 720.267C849.366 718.586 849.736 716.992 850.536 715.484L863.216 691.569C864.036 690.023 865.156 688.828 866.566 687.984C868.006 687.102 869.556 686.625 871.246 686.551C872.906 686.42 874.506 686.764 876.056 687.583L908.396 704.739L903.686 713.615L890.566 706.656L878.336 729.724L891.446 736.682L886.796 745.445ZM869.516 725.044L881.746 701.978L871.796 696.7L859.566 719.767L869.516 725.044Z" fill="#FEEC82"/>
<path d="M928.946 661.424C928.436 663.052 927.556 664.431 926.306 665.559C925.056 666.687 923.606 667.441 921.966 667.821C920.326 668.2 918.696 668.134 917.066 667.623L891.176 659.493C889.506 658.969 888.136 658.089 887.046 656.853C885.916 655.604 885.166 654.16 884.786 652.52C884.406 650.88 884.466 649.246 884.976 647.618L893.096 621.79C893.616 620.121 894.496 618.742 895.736 617.655C896.976 616.526 898.426 615.773 900.066 615.393C901.676 614.96 903.316 615.006 904.986 615.53L909.136 616.834L906.126 626.42L902.466 625.27L894.636 650.182L919.556 658.005L927.376 633.093L920.786 631.022L917.786 640.547L908.266 637.556L914.266 618.444L930.876 623.66C932.506 624.171 933.876 625.072 934.986 626.361C936.116 627.61 936.876 629.054 937.256 630.694C937.646 632.293 937.576 633.927 937.056 635.596L928.946 661.424Z" fill="#FEEC82"/>
<path d="M950.806 589.614L905.086 583.827L910.436 541.604L920.336 542.858L916.256 575.113L924.256 576.125L927.546 550.157L937.446 551.41L934.166 577.379L942.166 578.392L946.246 546.137L956.146 547.391L950.806 589.614Z" fill="#FEEC82"/>
<path d="M960.566 510.966L914.546 513.343L914.016 503.117L943.366 475.774L912.686 477.359L912.166 467.325L958.186 464.947L958.716 475.174L929.246 502.651L960.056 501.059L960.566 510.966Z" fill="#FEEC82"/>
<path d="M953.557 417.237C953.957 418.939 953.917 420.595 953.417 422.203C952.917 423.77 952.077 425.131 950.897 426.286C949.687 427.451 948.227 428.236 946.527 428.64L920.117 434.903C918.417 435.306 916.787 435.256 915.217 434.75C913.607 434.255 912.227 433.421 911.077 432.248C909.907 431.033 909.127 429.575 908.717 427.873L900.297 392.378L910.017 390.073L917.847 423.077C917.997 423.742 918.287 424.221 918.707 424.516C919.117 424.769 919.677 424.812 920.387 424.645L941.687 419.593C942.347 419.436 942.827 419.146 943.117 418.726C943.367 418.273 943.407 417.715 943.247 417.051L935.417 384.046L945.137 381.742L953.557 417.237Z" fill="#FEEC82"/>
<path d="M929.036 329.206L913.266 336.104L895.356 367.194L890.616 356.346L901.466 335.812L879.046 329.9L874.256 318.934L909.326 326.93L925.036 320.059L929.036 329.206Z" fill="#FEEC82"/>
<path d="M861.075 239.6C862.765 241.854 862.495 243.812 860.275 245.475L859.355 246.165C857.105 247.854 855.135 247.571 853.445 245.318L852.635 244.242C850.925 241.954 851.195 239.966 853.445 238.278L854.365 237.587C856.585 235.924 858.555 236.237 860.265 238.524L861.075 239.6Z" fill="#FEEC82"/>
<defs>
<clipPath id="paint0_diamond_1146_17259_clip_path"><path d="M500 990C770.62 990 990 770.62 990 500C990 229.38 770.62 10 500 10C229.38 10 10 229.38 10 500C10 770.62 229.38 990 500 990Z"/></clipPath><clipPath id="paint1_diamond_1146_17259_clip_path"><path d="M500 990C770.62 990 990 770.62 990 500C990 229.38 770.62 10 500 10C229.38 10 10 229.38 10 500C10 770.62 229.38 990 500 990Z"/></clipPath><clipPath id="paint2_diamond_1146_17259_clip_path"><path d="M353.999 365.072L432.633 443.84V500.862L420.637 488.846L355.954 424.106V539.824L448.693 632.749V597.245L389.952 538.385V481.247L418.462 509.817L489.025 580.521L489.015 580.531V730L455.341 696.259L455.22 696.382L315.616 556.502L315.632 556.486V326.591L353.999 365.072ZM683.569 326.615L683.583 326.603V383.698L683.567 383.714L683.558 527.853L683.562 527.857V527.988L683.558 527.99V528.01H683.54L550.5 661.315V689.598L510.178 730V580.513L550.5 540.111V604.352L643.251 511.413L643.337 423.984L579.09 488.299L567.099 500.317V443.294L682.365 327.82L683.569 326.589V326.615ZM683.256 555.928L558.258 681.092L558.127 664.478L683.397 539.044L683.256 555.928ZM295.575 536.654L200.006 441.293H295.575V536.654ZM799.996 441.293L704.425 536.654V441.293H799.996ZM527.039 497.688H472.604V443.145H527.039V497.688ZM295.575 421.931H200L295.575 326.563V421.931ZM800 421.931H704.425V326.563L800 421.931ZM500.104 270.02L500.112 270.014L600.405 370.505L571.891 399.074L500.092 327.131L428.321 399.045L399.808 370.477L500.086 270L500.104 270.02Z"/></clipPath><clipPath id="paint3_diamond_1146_17259_clip_path"><path d="M500 990C770.62 990 990 770.62 990 500C990 229.38 770.62 10 500 10C229.38 10 10 229.38 10 500C10 770.62 229.38 990 500 990Z"/></clipPath><clipPath id="paint4_diamond_1146_17259_clip_path"><path d="M500 990C770.62 990 990 770.62 990 500C990 229.38 770.62 10 500 10C229.38 10 10 229.38 10 500C10 770.62 229.38 990 500 990Z"/></clipPath><clipPath id="paint5_diamond_1146_17259_clip_path"><path d="M353.999 365.072L432.633 443.84V500.862L420.637 488.846L355.954 424.106V539.824L448.693 632.749V597.245L389.952 538.385V481.247L418.462 509.817L489.025 580.521L489.015 580.531V730L455.341 696.259L455.22 696.382L315.616 556.502L315.632 556.486V326.591L353.999 365.072ZM683.569 326.615L683.583 326.603V383.698L683.567 383.714L683.558 527.853L683.562 527.857V527.988L683.558 527.99V528.01H683.54L550.5 661.315V689.598L510.178 730V580.513L550.5 540.111V604.352L643.251 511.413L643.337 423.984L579.09 488.299L567.099 500.317V443.294L682.365 327.82L683.569 326.589V326.615ZM683.256 555.928L558.258 681.092L558.127 664.478L683.397 539.044L683.256 555.928ZM295.575 536.654L200.006 441.293H295.575V536.654ZM799.996 441.293L704.425 536.654V441.293H799.996ZM527.039 497.688H472.604V443.145H527.039V497.688ZM295.575 421.931H200L295.575 326.563V421.931ZM800 421.931H704.425V326.563L800 421.931ZM500.104 270.02L500.112 270.014L600.405 370.505L571.891 399.074L500.092 327.131L428.321 399.045L399.808 370.477L500.086 270L500.104 270.02Z"/></clipPath><linearGradient id="paint0_diamond_1146_17259" x1="0" y1="0" x2="500" y2="500" gradientUnits="userSpaceOnUse">
<stop offset="0.0012586" stop-color="#F4E08A"/>
<stop offset="1" stop-color="#8E8250" stop-opacity="0"/>
</linearGradient>
<linearGradient id="paint1_diamond_1146_17259" x1="0" y1="0" x2="500" y2="500" gradientUnits="userSpaceOnUse">
<stop offset="0.0012586" stop-color="#F4E08A"/>
<stop offset="1" stop-color="#8E8250" stop-opacity="0"/>
</linearGradient>
<linearGradient id="paint2_diamond_1146_17259" x1="0" y1="0" x2="500" y2="500" gradientUnits="userSpaceOnUse">
<stop stop-color="#8E8250" stop-opacity="0"/>
<stop offset="0.998741" stop-color="#E2BE59"/>
</linearGradient>
<linearGradient id="paint3_diamond_1146_17259" x1="0" y1="0" x2="500" y2="500" gradientUnits="userSpaceOnUse">
<stop offset="0.0012586" stop-color="#F4E08A"/>
<stop offset="1" stop-color="#8E8250" stop-opacity="0"/>
</linearGradient>
<linearGradient id="paint4_diamond_1146_17259" x1="0" y1="0" x2="500" y2="500" gradientUnits="userSpaceOnUse">
<stop offset="0.0012586" stop-color="#F4E08A"/>
<stop offset="1" stop-color="#8E8250" stop-opacity="0"/>
</linearGradient>
<linearGradient id="paint5_diamond_1146_17259" x1="0" y1="0" x2="500" y2="500" gradientUnits="userSpaceOnUse">
<stop stop-color="#8E8250" stop-opacity="0"/>
<stop offset="0.998741" stop-color="#E2BE59"/>
</linearGradient>
</defs>
</svg>
